<?xml version="1.0" standalone="no"?>
<!DOCTYPE svg PUBLIC "-//W3C//DTD SVG 20010904//EN"
 "http://www.w3.org/TR/2001/REC-SVG-20010904/DTD/svg10.dtd">
<svg version="1.0" xmlns="http://www.w3.org/2000/svg"
 width="338.000000pt" height="338.000000pt" viewBox="0 0 338.000000 338.000000"
 preserveAspectRatio="xMidYMid meet">
<metadata>
Created by potrace 1.14, written by Peter Selinger 2001-2017
</metadata>
<g transform="translate(0.000000,338.000000) scale(0.100000,-0.100000)"
fill="#000000" stroke="none">
<path d="M1687 3355 c-212 -26 -428 -85 -572 -157 -245 -123 -424 -311 -488
-513 -18 -58 -22 -93 -22 -200 1 -123 2 -134 33 -212 41 -102 85 -168 171
-256 172 -178 426 -290 794 -352 199 -33 255 -48 354 -96 103 -49 192 -129
230 -207 38 -78 39 -174 2 -252 -76 -162 -287 -272 -551 -287 -240 -14 -414
49 -610 221 l-77 67 -78 -62 c-43 -35 -82 -66 -86 -70 -13 -10 55 -81 133
-139 285 -211 754 -255 1078 -100 192 92 310 229 331 386 14 98 -16 211 -72
271 -11 13 -18 25 -15 28 10 10 99 -98 128 -156 155 -307 -92 -641 -540 -732
-425 -87 -815 13 -1105 284 l-63 59 -83 -66 c-46 -37 -86 -68 -87 -70 -10 -7
134 -133 212 -185 255 -172 515 -251 826 -251 210 0 381 37 567 123 233 107
405 292 444 476 29 141 -17 320 -108 419 -55 60 -61 71 -26 46 35 -25 120
-135 151 -197 53 -105 68 -260 37 -380 -49 -185 -213 -363 -440 -477 -432
-217 -1024 -185 -1470 80 -85 51 -216 153 -264 208 l-41 47 -37 -29 c-67 -49
-133 -106 -133 -113 0 -12 102 -116 160 -163 84 -68 144 -106 249 -158 245
-121 509 -180 816 -180 500 0 947 178 1161 463 158 211 188 471 79 687 -146
289 -452 469 -935 550 -262 43 -374 85 -488 179 -122 102 -161 255 -99 383 54
110 197 213 350 252 32 9 106 20 163 27 251 27 461 -47 657 -230 l62 -59 84
67 c46 37 84 71 85 74 2 13 -108 118 -159 151 -389 259 -979 229 -1263 -63
-143 -148 -166 -362 -55 -509 39 -52 20 -48 -26 4 -158 180 -171 393 -34 575
152 202 482 322 838 306 310 -14 571 -124 764 -320 l54 -55 89 71 90 72 -72
67 c-172 162 -416 285 -673 340 -125 26 -416 31 -537 9 -284 -51 -563 -208
-682 -384 -63 -92 -89 -168 -95 -273 -5 -75 -2 -104 15 -161 22 -70 81 -172
120 -207 12 -11 22 -24 22 -30 0 -14 -65 50 -105 105 -82 110 -115 210 -115
345 0 161 56 287 190 424 147 150 369 260 619 306 120 23 351 29 480 14 346
-40 671 -190 885 -409 l59 -60 83 67 c46 37 83 71 84 75 0 16 -123 137 -195
192 -216 165 -491 265 -824 300 -162 18 -278 17 -424 0z"/>
</g>
</svg>
